<svg width="1920" height="714" viewBox="0 0 1920 714" fill="none" xmlns="http://www.w3.org/2000/svg">
<mask id="mask0" mask-type="alpha" maskUnits="userSpaceOnUse" x="0" y="0" width="1920" height="714">
<path d="M0 0C0 0 576.876 34.2445 947 34.7023C1327.27 35.1727 1920 0 1920 0V714C1920 714 1327.27 679.695 947 680.165C576.876 680.623 0 714 0 714V0Z" fill="#DDEDFF"/>
</mask>
<g mask="url(#mask0)">
<path d="M0 0C0 0 576.876 34.1966 947 34.6537C1327.27 35.1234 1920 0 1920 0V713C1920 713 1327.27 678.743 947 679.213C576.876 679.67 0 713 0 713V0Z" fill="#DDEDFF"/>
<circle cx="54.5" cy="788.5" r="342" stroke="#0100FD" stroke-opacity="0.1"/>
<circle cx="55" cy="788" r="265.5" stroke="#0100FD" stroke-opacity="0.1"/>
<circle opacity="0.2" cx="1638" cy="170" r="9" fill="#3595FC"/>
<circle opacity="0.2" cx="777" cy="676" r="14" fill="#3595FC"/>
<line x1="304.361" y1="313.654" x2="327.361" y2="337.654" stroke="#3595FC"/>
<line y1="-0.5" x2="33.2415" y2="-0.5" transform="matrix(-0.691905 0.721988 0.721988 0.691905 1551 446)" stroke="#3595FC"/>
<path d="M1542.59 688.5L1559 662.926L1575.41 688.5H1542.59Z" stroke="#3595FC" stroke-opacity="0.4"/>
</g>
</svg>
